<svg version="1.1" xmlns="http://www.w3.org/2000/svg" xmlns:xlink="http://www.w3.org/1999/xlink" width="36.15854" height="25.5" viewBox="0,0,36.15854,25.5"><g transform="translate(-45.3418,-13.61556)"><g stroke-miterlimit="10"><path d="M46.59181,37.86556v-23h33.65854v23z" fill="#2b2b2b" stroke="#9d9d9d" stroke-width="2.5"/><text transform="translate(54.80099,35.87232) scale(0.16169,0.16169)" font-size="40" xml:space="preserve" fill="#ffffff" stroke="none" stroke-width="1" font-family="&quot;ヒラギノ角ゴ Pro W3&quot;, &quot;Hiragino Kaku Gothic Pro&quot;, Osaka, &quot;メイリオ&quot;, Meiryo, &quot;ＭＳ Ｐゴシック&quot;, &quot;MS PGothic&quot;" font-weight="normal" text-anchor="start"><tspan x="0" dy="0">Cama</tspan></text><g stroke="none" stroke-width="0.5"><path d="M51.97318,22.05458l0.09143,-0.07837l0.05667,-0.10626l0.10016,-0.02817l0.27423,-0.23505l0.154,-0.077c0.18555,-0.09769 0.39689,-0.15298 0.62115,-0.15298c0.01176,0 0.02348,0.00015 0.03516,0.00045l0.03948,-0.00877l0.01219,0.00812l0.24736,-0.08421l0.99208,-0.08267l0.81526,-0.16305l0.13284,0.00632l0.12902,-0.03225h2.4924l0.07294,0.01823l0.07451,-0.01007l1.52876,0.16986h0.37112l0.06577,0.01645l0.06709,-0.00982l0.89014,0.08901l0.14052,0.05044l0.14885,0.01145l0.06149,0.0205h1.02953l0.10826,0.02706l0.11125,-0.0089l0.09848,0.01641l0.0121,-0.00242l0.32523,-0.08131h0.16437l0.15946,-0.03987h2.58141l0.12902,0.03225l0.13284,-0.00632l0.44507,0.08901l0.07625,0.03612l0.08412,0.00647l0.06149,0.0205h0.40643l0.66761,0.1669l0.10336,0.18088l0.20054,0.0564l0.02022,0.03791l0.0387,0.00298h5.46761l0.66761,0.1669l0.18207,0.31863l0.31863,0.18207l0.1669,0.66761v1.70117l0.08253,0.20633l0.03417,0.25056l0.06133,0.24533v1.07406l0.0787,0.62963l-0.01015,0.08376l0.02046,0.08185v0.52821l0.0756,0.52916l-0.00124,0.01198l0.00435,0.01123l0.08901,0.71211l-0.01015,0.08376l0.02046,0.08185v0.44507l-0.1669,0.66761l-0.31863,0.18207l-0.18207,0.31863l-0.66761,0.1669h-4.27268l-0.14265,-0.03566l-0.14699,0.00387l-0.7085,-0.15744l-1.01145,-0.0778h-0.83886l-0.66761,-0.1669l-0.10336,-0.18088l-0.20054,-0.0564l-0.32384,-0.60719l-0.08901,-0.35606v-0.09838l-0.03324,-0.0926l-0.08901,-0.89014l0.00981,-0.06709l-0.01644,-0.06577v-1.38821c-0.96873,-0.02525 -2.01872,-0.00504 -3.02648,-0.01341v0.95655l-0.01823,0.07294l0.01007,0.0745l-0.08901,0.80113l-0.08182,0.22029l-0.05097,0.22939l-0.08901,0.17803l-0.23505,0.27423l-0.02817,0.10016l-0.10626,0.05667l-0.07837,0.09143l-0.10388,0.00577l-0.31868,0.16997l-0.35606,0.08901h-0.16437l-0.15946,0.03987h-2.31437l-0.12902,-0.03225l-0.13284,0.00632l-0.39723,-0.07945l-0.66371,-0.08297l-0.07635,-0.02955h-0.08188l-0.19659,-0.04915h-0.35944c-0.32828,0.15504 -0.65966,0.1911 -0.89183,0h-0.45365l-0.16942,-0.04235l-0.17461,-0.00273l-1.33521,-0.35606l-0.19101,-0.10574l-0.2056,-0.07343l-0.38531,-0.25687l-0.09741,-0.03247l-0.58057,-0.36945l-0.00204,-0.01019l-0.00986,-0.00328l-0.29459,-0.62191l-0.08901,-0.44507l0.00345,-0.07247l-0.0239,-0.0685l-0.08698,-0.95675l-0.08623,-0.68979l0.01016,-0.08376l-0.02046,-0.08185v-0.6231l0.01823,-0.07294l-0.01007,-0.0745l0.08085,-0.72763v-0.81619l0.03987,-0.15946v-0.16437l0.17803,-0.71211l0.16996,-0.31868z" fill="#797979"/><path d="M56.47534,18.17224c1.17377,0.02256 2.20762,0.562 2.57595,1.35398c1.67893,0.18356 3.24253,0.39883 4.22778,0.4263c3.10258,0.08652 6.24534,0.75238 9.31515,0.89014c0.73171,0.03284 2.61062,-0.2254 2.89572,0.27352l0.65755,1.15071c-0.36176,0.63308 -1.012,1.0202 -1.84684,1.23368c-3.37707,0.86359 -9.77468,-1.11403 -12.3154,-1.14467c-3.37896,-0.04075 -10.76175,1.45061 -10.76175,-1.33521c0,-0.10265 0.00961,-0.19981 0.02832,-0.29172c-0.54577,-0.76819 -0.74163,-1.65319 0.15618,-2.16623c0.05076,-0.086 0.11088,-0.16582 0.17897,-0.23804c0.14355,-0.1824 0.35484,-0.34066 0.64166,-0.45657c0.8216,-0.33204 2.68617,-0.28729 4.0021,0.30067c0.08232,0.00079 0.16389,0.00188 0.24461,0.00344z" fill="#27b500"/><path d="M52.47642,20.85368c0.13541,0 0.2614,0.04031 0.36664,0.10959c0.11798,0.07118 0.24749,0.19043 0.29093,0.38216c0.21558,0.11623 0.40651,0.19607 0.54028,0.22408c0.72825,-0.00386 1.45644,-0.00372 2.18469,-0.00372c0.02959,0 1.67105,-0.00014 1.6854,0.00042c0.43369,0.01698 1.73862,-0.74118 1.60799,-1.27852c-1.16084,-0.24581 -2.36965,-0.80447 -3.59699,-1.19874c-0.55494,-0.10601 -1.10918,-0.21594 -1.65144,-0.36523c-0.03982,-0.01096 -0.07928,-0.02284 -0.1184,-0.03538c-0.52766,-0.05454 -1.05613,-0.0378 -1.58314,0.08712c-0.14788,0.03505 -0.27368,0.07669 -0.37943,0.12395c-0.45229,0.61585 -0.3784,1.03085 0.0959,1.55339c0.14299,0.14192 0.30351,0.27938 0.46948,0.40663c0.02882,-0.0038 0.05822,-0.00576 0.08808,-0.00576zM60.17764,19.87969c0.21084,0.94967 -0.08497,2.17818 -0.72131,2.72616c-1.07357,0.92452 -4.53416,0.29757 -5.92273,0.29144c-0.59503,-0.12947 -1.25468,-0.47312 -1.83747,-0.93273l-0.2004,-0.06574c-0.54764,-0.49954 -0.92219,-0.97678 -1.12005,-1.45291c-0.4828,-0.90818 -0.4703,-1.8727 0.55143,-2.53684c0.0845,-0.10838 0.17653,-0.21821 0.27611,-0.32966c1.46422,-0.94092 6.94143,0.0831 8.43572,1.32847c0.05892,0.0491 0.11327,0.10359 0.16317,0.16278c0.18724,0.07795 0.46944,0.27185 0.39462,0.72076c-0.00519,0.03111 -0.01159,0.06051 -0.0191,0.08828z" fill="#135800"/></g></g></g></svg>