<svg version="1.1" xmlns="http://www.w3.org/2000/svg" xmlns:xlink="http://www.w3.org/1999/xlink" width="72.03715" height="39.87797" viewBox="0.34367,-0.5,72.03715,39.87797"><g transform="translate(-35.65027,-26.79599)"><g stroke="#000000" stroke-width="1.5" stroke-miterlimit="10"><g><path d="M41.10922,40.2769l0.24984,-0.21415l0.15485,-0.29036l0.27369,-0.07698l0.74935,-0.64229l0.42082,-0.21041c0.50703,-0.26694 1.08453,-0.41803 1.69734,-0.41803c0.03214,0 0.06416,0.00041 0.09608,0.00123l0.10788,-0.02396l0.03331,0.02219l0.67593,-0.23011l2.71093,-0.2259l2.22776,-0.44555l0.36299,0.01727l0.35256,-0.08813h6.81066l0.19931,0.04981l0.2036,-0.02752l4.17745,0.46415h1.01411l0.17972,0.04495l0.18333,-0.02683l2.43237,0.24323l0.38398,0.13783l0.40674,0.03129l0.16803,0.05602h2.81326l0.29583,0.07394l0.304,-0.02432l0.2691,0.04484l0.03306,-0.00661l0.88871,-0.22219h0.44915l0.43574,-0.10895h7.05389l0.35256,0.08813l0.36299,-0.01727l1.21619,0.24323l0.20836,0.0987l0.22986,0.01768l0.16803,0.05602h1.1106l1.82429,0.45607l0.28244,0.49427l0.54799,0.15412l0.05525,0.10359l0.10575,0.00814h14.94063l1.82429,0.45607l0.49752,0.87068l0.87068,0.49752l0.45607,1.82429v4.64857l0.22552,0.56381l0.09337,0.68467l0.16759,0.67038v2.93495l0.21505,1.72051l-0.02774,0.22888l0.05591,0.22366v1.44337l0.20658,1.44597l-0.00339,0.03274l0.01189,0.03069l0.24323,1.94589l-0.02774,0.22888l0.05591,0.22366v1.21619l-0.45607,1.82429l-0.87068,0.49752l-0.49752,0.87068l-1.82429,0.45607h-11.6754l-0.3898,-0.09744l-0.40166,0.01058l-1.93603,-0.43022l-2.76386,-0.21259h-2.29224l-1.82429,-0.45607l-0.28244,-0.49427l-0.54799,-0.15412l-0.88492,-1.65919l-0.24323,-0.97296v-0.26883l-0.09083,-0.25304l-0.24323,-2.43237l0.02681,-0.18333l-0.04492,-0.17972v-3.79338c-2.64712,-0.069 -5.5163,-0.01377 -8.27007,-0.03664v2.61384l-0.04981,0.19931l0.02752,0.20358l-0.24323,2.18914l-0.22358,0.60196l-0.13928,0.62682l-0.24323,0.48648l-0.64229,0.74935l-0.07698,0.27369l-0.29036,0.15485l-0.21415,0.24984l-0.28386,0.01577l-0.87082,0.46446l-0.97296,0.24323h-0.44915l-0.43574,0.10895h-6.32418l-0.35256,-0.08813l-0.36299,0.01727l-1.08546,-0.2171l-1.81363,-0.22672l-0.20863,-0.08075h-0.22374l-0.5372,-0.13431h-0.9822c-0.89705,0.42366 -1.80257,0.52219 -2.43699,0h-1.23963l-0.46295,-0.11572l-0.47713,-0.00746l-3.64856,-0.97296l-0.52195,-0.28894l-0.56182,-0.20065l-1.05289,-0.70192l-0.26618,-0.08873l-1.58645,-1.00955l-0.00557,-0.02784l-0.02694,-0.00896l-0.80499,-1.69941l-0.24323,-1.21619l0.00943,-0.19803l-0.06531,-0.18718l-0.23768,-2.61439l-0.23563,-1.8849l0.02776,-0.22888l-0.05591,-0.22366v-1.70267l0.04981,-0.19931l-0.02752,-0.20358l0.22093,-1.9883v-2.2303l0.10895,-0.43574v-0.44915l0.48648,-1.94589l0.46443,-0.87082z" fill="#797979"/><path d="M53.41172,29.66813c3.20741,0.06165 6.03248,1.53571 7.03897,3.69985c4.5878,0.50159 8.86044,1.08983 11.55271,1.1649c8.47802,0.23642 17.06584,2.05593 25.45431,2.43237c1.99945,0.08974 7.13371,-0.61592 7.91276,0.74741l1.7968,3.1444c-0.98853,1.72994 -2.76536,2.78777 -5.04662,3.37112c-9.22808,2.35982 -26.71001,-3.04417 -33.65271,-3.12789c-9.23325,-0.11135 -29.40725,3.9639 -29.40725,-3.64856c0,-0.2805 0.02626,-0.546 0.07739,-0.79715c-1.49136,-2.09913 -2.02656,-4.51746 0.42677,-5.91938c0.13871,-0.235 0.30299,-0.45311 0.48905,-0.65046c0.39226,-0.49842 0.96963,-0.93088 1.75338,-1.24761c2.24508,-0.90732 7.34015,-0.78504 10.93602,0.8216c0.22495,0.00216 0.44784,0.00514 0.66841,0.0094z" fill="#27b500"/><path d="M42.48436,36.99535c0.37002,0 0.71429,0.11015 1.00187,0.29946c0.32239,0.1945 0.67628,0.52036 0.79499,1.04428c0.58909,0.31761 1.11082,0.53578 1.47635,0.61231c1.99,-0.01055 3.97983,-0.01017 5.96982,-0.01017c0.08086,0 4.56626,-0.00038 4.60548,0.00115c1.18509,0.0464 4.7509,-2.02533 4.39395,-3.49365c-3.17208,-0.67169 -6.47524,-2.19827 -9.82903,-3.27564c-1.51641,-0.28968 -3.03091,-0.59007 -4.51268,-0.99802c-0.10881,-0.02995 -0.21664,-0.06241 -0.32354,-0.09668c-1.44187,-0.14903 -2.88595,-0.10329 -4.32604,0.23806c-0.40409,0.09578 -0.74785,0.20956 -1.03682,0.3387c-1.23591,1.68285 -1.034,2.81687 0.26205,4.24475c0.39073,0.38781 0.82936,0.76343 1.28289,1.11115c0.07875,-0.01038 0.15909,-0.01574 0.24068,-0.01574zM63.52849,34.33386c0.57614,2.59504 -0.23219,5.95203 -1.97103,7.44943c-2.93361,2.52632 -12.38992,0.81313 -16.18428,0.79638c-1.62596,-0.35379 -3.4285,-1.29283 -5.02102,-2.54875l-0.54761,-0.17964c-1.49647,-1.36503 -2.51995,-2.66912 -3.06062,-3.97018c-1.31929,-2.48167 -1.28513,-5.11729 1.50682,-6.9321c0.2309,-0.29616 0.48238,-0.59627 0.75449,-0.90082c4.00109,-2.57113 18.96795,0.22708 23.05121,3.63014c0.161,0.13417 0.30952,0.28307 0.44587,0.44481c0.51165,0.213 1.28278,0.74285 1.07833,1.96953c-0.01418,0.08501 -0.03167,0.16535 -0.05219,0.24123z" fill="#135800"/></g></g></g></svg>