<svg version="1.1" xmlns="http://www.w3.org/2000/svg" xmlns:xlink="http://www.w3.org/1999/xlink" width="36.15854" height="25.5" viewBox="0,0,36.15854,25.5"><g transform="translate(-10.3418,-13.61556)"><g stroke-miterlimit="10"><path d="M11.5918,37.86556v-23h33.65854v23z" fill="#2b2b2b" stroke="#9d9d9d" stroke-width="2.5"/><text transform="translate(23.75097,35.26323) scale(0.22482,0.22482)" font-size="40" xml:space="preserve" fill="#ffffff" stroke="none" stroke-width="1" font-family="&quot;ヒラギノ角ゴ Pro W3&quot;, &quot;Hiragino Kaku Gothic Pro&quot;, Osaka, &quot;メイリオ&quot;, Meiryo, &quot;ＭＳ Ｐゴシック&quot;, &quot;MS PGothic&quot;" font-weight="normal" text-anchor="start"><tspan x="0" dy="0">Lã</tspan></text><g stroke="none" stroke-width="0.5"><path d="M30.51405,23.52619c0.07288,0.15342 0.11209,0.38633 -0.12081,0.61924c-0.39869,0.39869 -0.79738,0 -0.79738,0l0.18725,-0.04629c-0.26559,-0.00096 -0.52629,-0.05623 -0.78004,-0.14475c-0.00291,0.00034 -0.00583,0.00065 -0.00876,0.00095l-0.02657,0.13285l-0.69455,-0.13891c-0.12704,-0.02282 -0.2393,-0.08819 -0.32152,-0.18083c-0.3732,0.22302 -0.72423,0.48457 -0.94763,0.60165c-1.14124,-0.11405 -2.72696,-0.6042 -2.64454,-2.09361c0.03354,-0.6062 0.60116,-1.0024 0.91637,-1.459c-0.20844,-0.08278 -0.35581,-0.28629 -0.35581,-0.52422c0,-0.02486 0.00161,-0.04934 0.00473,-0.07335c-0.74014,-0.39851 -1.48297,-0.7856 -1.02237,-1.89605c0.70645,-1.70314 3.52427,-0.28592 4.89398,-0.28592c0,0 0.02688,0 0.0689,0.00587c0.08329,-0.04854 0.18014,-0.07635 0.2835,-0.07635c0.08134,0 0.15865,0.01722 0.2285,0.04822l0.83411,0.34755l-0.00262,0.0063l0.02041,0.00148c0.88108,0.44103 3.33579,1.22775 3.28858,2.44411c-0.00632,0.16274 -0.03397,0.30367 -0.07907,0.4265c-0.02457,0.13364 -0.09626,0.25079 -0.1972,0.33358c-0.56024,0.63964 -1.81384,0.54152 -2.29943,1.09608c-0.01439,0.01643 -0.02824,0.03359 -0.0416,0.05139c0.00676,0.03491 0.0103,0.07096 0.0103,0.10785c0,0.22038 -0.12644,0.41123 -0.31073,0.50397c-0.02758,0.0659 -0.05575,0.1305 -0.08599,0.19171z" fill="#ffffff"/><path d="M25.10498,17.93454c-0.09835,0.06388 -0.18912,0.08657 -0.18912,0.08657c-0.54948,-0.01338 -0.42987,1.19467 -0.3116,1.65674c0.15162,0.59234 1.41763,0.6289 1.37296,1.31421c-0.02556,0.39218 -0.5962,0.5161 -0.85489,0.81197c-0.48934,0.55964 0.02624,1.61842 0.41445,2.04099c0.11391,0.12399 1.2554,0.91857 1.55605,0.45918c0.21979,-0.33584 0.11162,-0.96834 0.49096,-1.09945c0.00311,-0.00107 1.02195,0.60565 1.31677,0.78114c0.40384,0.03588 1.4589,0.25969 1.61424,-0.34075c0.10645,-0.41149 -0.46044,-0.87986 -0.07192,-1.27021c0.46675,-0.46895 2.75453,-0.08225 2.87637,-1.07064c0.12052,-0.97768 -0.76793,-1.02291 -1.33591,-1.47523c-0.62467,-0.49748 -1.71396,-2.08217 -2.80351,-1.56401c-0.22797,0.10842 -0.27448,0.53735 -0.52683,0.54403c-0.34854,0.00923 -1.86267,-0.91767 -2.30713,-1.06703c-0.36637,-0.04908 -0.74329,0.00472 -1.10652,0.07402c-0.00229,0.0028 -0.00461,0.00556 -0.00694,0.00828l0.0004,0.04841c0,0 -0.04983,0.03322 -0.12785,0.06177zM24.59231,16.94536c0.00947,-0.00718 0.015,-0.01087 0.015,-0.01087l0.42333,-0.22656c0.51428,-0.08955 1.04636,-0.1276 1.56468,-0.06561c0.41546,0.13756 1.43347,0.43632 1.79943,0.70876c0.09624,0.07165 0.00883,0.37789 0.12218,0.33857c0.15026,-0.05211 0.02911,-0.38669 0.17796,-0.44268c1.72795,-0.64995 2.84242,0.78671 3.96246,1.67802c0.52598,0.41857 1.29031,0.649 1.57687,1.25706c1.1827,2.50953 -1.46338,2.52631 -2.85557,2.82209c-0.09598,0.02039 0.21221,0.08436 0.23267,0.18033c0.05595,0.26247 0.06806,0.55222 -0.02267,0.80479c-0.10558,0.29391 -0.29466,0.57306 -0.54118,0.76479c-0.75336,0.5859 -1.64518,0.41055 -2.49619,0.30404c-0.20068,-0.11232 -0.44816,-0.16761 -0.61455,-0.3217c-0.08217,1.3948 -2.54565,0.58205 -3.21922,-0.11649c-0.62416,-0.6473 -1.12123,-1.8936 -0.83045,-2.79854c0.08062,-0.25091 0.19683,-0.62906 0.42764,-0.79881c-0.33216,-0.25343 -0.68851,-0.70745 -0.77033,-0.95962c-0.4098,-1.26296 -0.162,-2.65877 1.04793,-3.11758z" fill="#000000"/></g></g></g></svg>