<svg version="1.1" xmlns="http://www.w3.org/2000/svg" xmlns:xlink="http://www.w3.org/1999/xlink" width="99" height="27.86486" viewBox="0,0,99,27.86486"><g transform="translate(-275.96719,-150.92741)"><g stroke-miterlimit="10"><path d="M278.46719,176.29227v-22.86486h94v22.86486z" fill="#6e6e6e" stroke="#dddddd" stroke-width="5"/><text transform="translate(282.28684,168.41007) scale(0.29833,0.29833)" font-size="40" xml:space="preserve" fill="#ffffff" stroke="none" stroke-width="1" font-family="&quot;ヒラギノ角ゴ Pro W3&quot;, &quot;Hiragino Kaku Gothic Pro&quot;, Osaka, &quot;メイリオ&quot;, Meiryo, &quot;ＭＳ Ｐゴシック&quot;, &quot;MS PGothic&quot;" font-weight="normal" text-anchor="start"><tspan x="0" dy="0">Coletar Pedra</tspan></text><g stroke="none" stroke-width="0.5"><path d="M360.2077,172.54034c-1.18998,-0.43398 -0.27476,-1.86097 0.08906,-2.40721c1.06396,-1.59741 2.2867,-3.43439 3.90997,-4.46836c0,0 0.47374,-0.30148 0.77522,0.17227c0.0276,0.04337 0.0487,0.08529 0.06426,0.12567c0.3848,0.04165 0.6073,0.3924 0.67827,1.13218c0.07326,0.7636 -0.87803,1.46545 -1.3126,1.945c-1.122,1.23811 -2.01164,2.62118 -3.20335,3.81289l-0.44386,0.16447c0,0 -0.5036,0 -0.55697,-0.47691z" fill="#7a5d00"/><path d="M363.82362,163.06115c2.77562,0.55751 5.14764,2.44725 5.17684,5.46385c-0.0246,1.31527 -1.45338,3.25564 -2.73044,1.5944c-0.29798,-0.38763 -0.3397,-1.35392 -0.51176,-1.82479c-0.60043,-1.64319 -2.82856,-2.86873 -4.47868,-3.00035c0,0 -0.55959,-0.04663 -0.51296,-0.60623c0.00507,-0.06077 0.01618,-0.1144 0.03197,-0.16171c-0.23563,-0.0667 -0.40826,-0.28337 -0.40826,-0.54036c0,-0.2526 0.16679,-0.46624 0.39625,-0.53681l0.49004,-0.16335c0.87455,-0.58869 1.55293,-0.42434 2.54702,-0.22467z" fill="#b19e60"/><path d="M367.75971,164.85098c-0.39706,0.39706 -0.79413,0 -0.79413,0l0.03232,-0.05152c-0.18717,-0.06239 -0.37436,-0.12479 -0.56153,-0.18717c0,0 -0.53272,-0.17757 -0.35514,-0.71029c0.17757,-0.53272 0.71029,-0.35514 0.71029,-0.35514c0.18717,0.06239 0.37436,0.12479 0.56153,0.18717l0.40667,0.32283c0,0 0.39706,0.39706 0,0.79413z" fill="#7a5d00"/></g></g></g></svg>