<svg version="1.1" xmlns="http://www.w3.org/2000/svg" xmlns:xlink="http://www.w3.org/1999/xlink" width="36.15854" height="25.5" viewBox="0,0,36.15854,25.5"><g transform="translate(-45.3418,-13.61556)"><g stroke-miterlimit="10"><path d="M46.5918,37.86556v-23h33.65854v23z" fill="#2b2b2b" stroke="#9d9d9d" stroke-width="2.5"/><text transform="translate(53.00098,36.07232) scale(0.16169,0.16169)" font-size="40" xml:space="preserve" fill="#8e8e8e" stroke="none" stroke-width="1" font-family="&quot;ヒラギノ角ゴ Pro W3&quot;, &quot;Hiragino Kaku Gothic Pro&quot;, Osaka, &quot;メイリオ&quot;, Meiryo, &quot;ＭＳ Ｐゴシック&quot;, &quot;MS PGothic&quot;" font-weight="normal" text-anchor="start"><tspan x="0" dy="0">Picareta</tspan></text><g stroke="none" stroke-width="0.5"><path d="M59.6539,30.51522c-1.60911,-0.58683 -0.37154,-2.51644 0.12043,-3.25507c1.43871,-2.16004 3.09212,-4.64404 5.28713,-6.0422c0,0 0.6406,-0.40766 1.04826,0.23295c0.03732,0.05864 0.06585,0.11533 0.08689,0.16993c0.52034,0.05632 0.8212,0.53061 0.91717,1.53096c0.09906,1.03255 -1.18729,1.98161 -1.77492,2.63006c-1.51719,1.6742 -2.72017,3.5444 -4.33163,5.15586l-0.60019,0.2224c0,0 -0.68098,0 -0.75314,-0.64489z" fill="#7a5d00"/><path d="M64.54341,17.6973c3.75324,0.75387 6.96073,3.30921 7.00021,7.38832c-0.03327,1.77853 -1.96528,4.40233 -3.69215,2.15598c-0.40294,-0.52416 -0.45935,-1.8308 -0.69201,-2.46751c-0.81191,-2.22195 -3.82483,-3.87915 -6.05615,-4.05713c0,0 -0.75669,-0.06306 -0.69363,-0.81975c0.00685,-0.08218 0.02188,-0.1547 0.04323,-0.21867c-0.31862,-0.09019 -0.55206,-0.38318 -0.55206,-0.73068c0,-0.34157 0.22553,-0.63046 0.53581,-0.72588l0.66264,-0.22088c1.18258,-0.79604 2.0999,-0.5738 3.44412,-0.3038z" fill="#b19e60"/><path d="M69.86586,20.11753c-0.53691,0.53691 -1.07383,0 -1.07383,0l0.0437,-0.06967c-0.2531,-0.08437 -0.50621,-0.16874 -0.75931,-0.2531c0,0 -0.72035,-0.24012 -0.48023,-0.96046c0.24012,-0.72035 0.96046,-0.48023 0.96046,-0.48023c0.2531,0.08437 0.50621,0.16874 0.75931,0.2531l0.5499,0.43654c0,0 0.53691,0.53691 0,1.07383z" fill="#7a5d00"/></g></g></g></svg>